<svg width="512" height="512" viewBox="0 0 512 512" fill="none" xmlns="http://www.w3.org/2000/svg">
  <rect width="512" height="512" rx="128" fill="url(#gradient)"/>
  
  <!-- Background pattern -->
  <g opacity="0.1">
    <path d="M128 192L256 128L384 192V320L256 384L128 320V192Z" fill="white"/>
    <path d="M256 160L352 208V304L256 352L160 304V208L256 160Z" fill="none" stroke="white" stroke-width="4"/>
  </g>
  
  <!-- Main geometric shape -->
  <path d="M128 192L256 128L384 192V320L256 384L128 320V192Z" fill="white" fill-opacity="0.08"/>
  <path d="M256 160L352 208V304L256 352L160 304V208L256 160Z" fill="none" stroke="white" stroke-width="6" stroke-linecap="round"/>
  
  <!-- Center circle -->
  <circle cx="256" cy="256" r="80" fill="white" fill-opacity="0.95"/>
  <circle cx="256" cy="256" r="64" fill="url(#centerGradient)"/>
  
  <!-- Letter Y design -->
  <g stroke="white" stroke-width="8" stroke-linecap="round" stroke-linejoin="round">
    <path d="M232 240L256 264L280 240"/>
    <path d="M256 264V288"/>
  </g>
  
  <!-- Decorative elements -->
  <circle cx="256" cy="256" r="96" fill="none" stroke="white" stroke-width="2" stroke-opacity="0.3"/>
  <circle cx="256" cy="256" r="112" fill="none" stroke="white" stroke-width="1" stroke-opacity="0.2"/>
  
  <defs>
    <linearGradient id="gradient" x1="0" y1="0" x2="512" y2="512" gradientUnits="userSpaceOnUse">
      <stop stop-color="#3B82F6"/>
      <stop offset="0.3" stop-color="#1D4ED8"/>
      <stop offset="0.7" stop-color="#1E40AF"/>
      <stop offset="1" stop-color="#1E3A8A"/>
    </linearGradient>
    <linearGradient id="centerGradient" x1="192" y1="192" x2="320" y2="320" gradientUnits="userSpaceOnUse">
      <stop stop-color="#60A5FA"/>
      <stop offset="0.5" stop-color="#3B82F6"/>
      <stop offset="1" stop-color="#2563EB"/>
    </linearGradient>
  </defs>
</svg>